<svg width="50" height="41" viewBox="0 0 50 41" fill="none" xmlns="http://www.w3.org/2000/svg">
<path d="M10.3844 0.566162C7.53111 0.566162 5.42222 3.07453 5.51778 5.79267C5.60667 8.40593 5.48889 11.7891 4.64 14.5496C3.78889 17.3169 2.35111 19.071 0 19.2964V21.836C2.35111 22.0614 3.78889 23.8154 4.64 26.5827C5.48889 29.341 5.60667 32.7264 5.51556 35.3374C5.42222 38.0578 7.53111 40.5662 10.3867 40.5662H39.6178C42.4711 40.5662 44.5822 38.0578 44.4889 35.3374C44.3978 32.7264 44.5156 29.341 45.3622 26.5827C46.2156 23.8154 47.6511 22.0614 50 21.836V19.2964C47.6489 19.071 46.2156 17.3169 45.3622 14.5496C44.5156 11.7913 44.3978 8.40593 44.4889 5.79267C44.5822 3.07453 42.4711 0.566162 39.6178 0.566162H10.3844ZM33.8978 25.1879C33.8978 28.9326 31.1178 31.2044 26.5022 31.2044H18.6444C18.5331 31.2047 18.4227 31.1829 18.3198 31.1403C18.2168 31.0977 18.1232 31.0351 18.0443 30.9562C17.9655 30.8772 17.9029 30.7834 17.8602 30.68C17.8175 30.5767 17.7956 30.466 17.7956 30.3542V10.7782C17.7956 10.6663 17.8175 10.5556 17.8602 10.4523C17.9029 10.349 17.9655 10.2551 18.0443 10.1762C18.1232 10.0972 18.2168 10.0346 18.3198 9.99199C18.4227 9.94939 18.5331 9.92762 18.6444 9.92791H26.4556C30.3044 9.92791 32.8311 12.0212 32.8311 15.237C32.8311 17.491 31.1311 19.5128 28.9667 19.8654V19.9837C31.9133 20.3073 33.8978 22.3582 33.8978 25.1879ZM25.6444 12.6237H21.1644V18.9795H24.9378C27.8556 18.9795 29.4622 17.8012 29.4622 15.6922C29.4622 13.7172 28.08 12.626 25.6444 12.626V12.6237ZM21.1644 21.5012V28.5064H25.8089C28.8467 28.5064 30.4533 27.2812 30.4533 24.9804C30.4533 22.6818 28.8022 21.5012 25.6133 21.5012H21.1644Z" fill="#56575A"/>
</svg>
