<svg width="40" height="41" viewBox="0 0 40 41" fill="none" xmlns="http://www.w3.org/2000/svg">
<path d="M0 0.566162H40V40.5662H0V0.566162ZM36.7233 31.0262C36.4317 29.2012 35.2433 27.6678 31.7183 26.2378C30.4917 25.6628 29.1283 25.2628 28.7233 24.3378C28.5717 23.7878 28.5483 23.4878 28.6467 23.1628C28.8967 22.0862 30.1717 21.7628 31.1717 22.0628C31.8217 22.2628 32.4217 22.7628 32.7983 23.5628C34.5217 22.4362 34.5217 22.4362 35.7233 21.6878C35.2733 20.9878 35.05 20.6862 34.7467 20.3878C33.6967 19.2128 32.2983 18.6128 30.0233 18.6645L28.8483 18.8128C27.7217 19.0878 26.6483 19.6878 25.9983 20.4878C24.0983 22.6395 24.6467 26.3895 26.9467 27.9395C29.2217 29.6395 32.5483 30.0128 32.9733 31.6145C33.3733 33.5645 31.5233 34.1895 29.6967 33.9645C28.345 33.6645 27.5967 32.9878 26.7717 31.7378L23.7217 33.4895C24.0717 34.2895 24.4717 34.6378 25.0717 35.3378C27.9717 38.2645 35.2217 38.1145 36.5233 33.6645C36.5717 33.5145 36.9233 32.4895 36.6467 30.9145L36.7233 31.0262ZM21.7517 18.9512H18.005C18.005 22.1812 17.99 25.3912 17.99 28.6262C17.99 30.6795 18.095 32.5645 17.76 33.1445C17.21 34.2928 15.7933 34.1462 15.15 33.9445C14.49 33.6178 14.155 33.1678 13.7667 32.5195C13.6617 32.3445 13.5833 32.1928 13.555 32.1928L10.5133 34.0678C11.0217 35.1178 11.7633 36.0212 12.72 36.5962C14.145 37.4462 16.06 37.7212 18.065 37.2712C19.37 36.8945 20.495 36.1195 21.0833 34.9195C21.9333 33.3695 21.7533 31.4695 21.745 29.3428C21.765 25.9195 21.745 22.4945 21.745 19.0445L21.7517 18.9512Z" fill="#56575A"/>
</svg>
